<svg xmlns="http://www.w3.org/2000/svg" width="1240" height="1240"><path d="M601.5.626C571.578 1.695 539.37 4.954 513 9.58 363.232 35.852 229.165 115.722 134.196 235.252 56.926 332.505 11.524 449.286 1.915 575.5c-1.47 19.312-1.47 69.688 0 89 13.345 175.283 96.528 332.606 233.337 441.304 97.253 77.27 214.034 122.672 340.248 132.281 19.312 1.47 69.688 1.47 89 0 175.283-13.345 332.606-96.528 441.304-233.337 70.51-88.745 115.652-196.663 129.149-308.748 2.532-21.034 4.038-41.582 4.043-55.191.002-6.044.439-10.96 1.004-11.309.559-.345 1-5.03 1-10.618 0-6.412-.359-9.778-1-9.382-.643.397-1.001-3.241-1.004-10.191-.008-21.468-3.678-58.403-8.575-86.309-26.287-149.792-106.142-283.834-225.673-378.804C907.74 57.121 787.409 10.328 665 2.08 648.031.936 614.379.166 601.5.626m-289 220.371c-1.1.475-3.265.894-4.812.933-2.974.074-11.999 2.579-14.924 4.142-.955.51-2.372.928-3.148.928-2.35 0-13.631 5.976-22.116 11.715-8.406 5.685-25.943 22.817-28.498 27.84-.825 1.62-1.816 3.184-2.205 3.476-1.278.961-9.797 17.875-9.797 19.453 0 .849-.424 2.325-.941 3.28-1.055 1.945-3.521 10.655-4.739 16.736-1.047 5.228-1.047 615.772 0 621 1.218 6.081 3.684 14.791 4.739 16.736.517.955.941 2.431.941 3.28 0 1.578 8.519 18.492 9.797 19.453.389.292 1.38 1.856 2.205 3.476 2.555 5.023 20.092 22.155 28.498 27.84 8.485 5.739 19.766 11.715 22.116 11.715.776 0 2.193.424 3.148.941 1.945 1.055 10.655 3.521 16.736 4.739 5.228 1.047 615.772 1.047 621 0 6.081-1.218 14.791-3.684 16.736-4.739.955-.517 2.431-.941 3.28-.941 1.587 0 18.502-8.526 19.453-9.805.292-.393 2.556-2.003 5.031-3.579 5.495-3.498 23.93-22.035 25.998-26.141.825-1.636 1.816-3.214 2.205-3.506 1.278-.961 9.797-17.875 9.797-19.453 0-.849.424-2.325.941-3.28 1.055-1.945 3.521-10.655 4.739-16.736 1.047-5.228 1.047-615.772 0-621-1.218-6.081-3.684-14.791-4.739-16.736-.517-.955-.941-2.431-.941-3.28 0-1.578-8.519-18.492-9.797-19.453-.389-.292-1.38-1.87-2.205-3.506-2.068-4.106-20.503-22.643-25.998-26.141-2.475-1.576-4.739-3.186-5.031-3.579-1.048-1.41-17.949-9.805-19.739-9.805-1.007 0-2.257-.388-2.78-.862-1.017-.922-6.845-2.637-14.95-4.399-6.153-1.338-616.922-2.068-620-.742m8 71.683c-11.398 3.548-20.164 10.245-24.432 18.664C290.694 321.946 291 303.321 291 620c0 261.551.164 293.028 1.56 298.592 3.752 14.961 12.367 23.918 27.44 28.531 6.728 2.059 593.272 2.059 600 0 10.84-3.317 19.729-10.177 23.932-18.467C949.306 918.054 949 936.679 949 620c0-261.551-.164-293.028-1.56-298.592-3.832-15.28-12.377-23.97-28.305-28.786-4.898-1.481-30.972-1.617-299.5-1.56-263.285.055-294.659.225-299.135 1.618M754 494.612c-9.41 1.762-10.755 2.991-92.263 84.309-43.319 43.218-79.415 78.721-80.213 78.895-.823.18-17.774-16.064-39.237-37.601-20.783-20.855-39.812-39.451-42.287-41.325-8.305-6.289-11.166-7.254-21.509-7.254-8.298 0-10.067.329-14.872 2.76-7.788 3.94-14.918 11.004-17.922 17.757-4.44 9.979-3.956 22.318 1.259 32.138 3.091 5.821 111.02 114.322 116.203 116.819 1.837.885 4.649 2.235 6.248 3 1.834.877 6.261 1.383 12 1.372 16.448-.034 8.372 6.957 115.343-99.846 51.837-51.755 94.25-94.455 94.25-94.888 0-.433 1.032-2.466 2.294-4.518 7.592-12.346 4.63-30.722-6.718-41.687-2.871-2.774-6.537-5.658-8.148-6.41a180.314 180.314 0 01-4.72-2.284c-2.064-1.058-15.997-1.932-19.708-1.237M.37 620c0 5.775.165 8.138.367 5.25.202-2.888.202-7.612 0-10.5S.37 614.225.37 620" fill="undefined" fill-rule="evenodd"/></svg>